<svg xmlns="http://www.w3.org/2000/svg" width="782.8" height="890.9"><style type="text/css">.st0{fill:#FFFFFF;}</style><path class="st0" d="M346.8 530.1s3.6 119.3-112.5 127.6c0 0-217-19.1-182.3 98.1 0 0 53.4 124.2 132.8 88.5 0 0 27.4 10.4 211.4-253.2 0 0 161.1-132.6 231.5-551.7l-280.9 490.7zm-101.7 215.6c-86.4 112.7-141.5 28.3-141.5 28.3-66.5-78.1 117.9-81.7 117.9-81.7 69.2-4.8 23.6 53.4 23.6 53.4zm150.9-194.9c-13 0-23.6-10.6-23.6-23.6 0-13 10.6-23.6 23.6-23.6 13 0 23.6 10.6 23.6 23.6 0 13-10.6 23.6-23.6 23.6z"/><path class="st0" d="M163.5 41.5c70.4 419.2 231.5 551.7 231.5 551.7 184 263.5 211.4 253.2 211.4 253.2 79.4 35.7 132.8-88.5 132.8-88.5 34.8-117.2-182.2-98.1-182.2-98.1-116.1-8.2-112.5-127.6-112.5-127.6l-281-490.7zm406.3 652.9s184.4 3.7 117.9 81.7c0 0-55 84.4-141.5-28.3 0 0-45.6-58.2 23.6-53.4zm-198.1-165.1c0-13 10.6-23.6 23.6-23.6 13 0 23.6 10.6 23.6 23.6 0 13-10.6 23.6-23.6 23.6-13 0-23.6-10.6-23.6-23.6z"/></svg>